<svg width="343.33" height="265.93" version="1.1" viewBox="-7.9375 -3.8112 19.682 7.6015"
     xmlns="http://www.w3.org/2000/svg">
    <path d="m1.1679 6.8045a3735.9 3735.9 0 0 0 4.6413-0.8214l0.0436-0.0093-2.3874-2.8397c-1.313-1.5618-2.3873-2.8457-2.3873-2.853 0-0.014 2.4651-6.8025 2.479-6.8267 0.0046-8e-3 1.6822 2.8883 4.0666 7.021 2.2323 3.869 4.0727 7.059 4.0898 7.0889l0.0311 0.0543-15.174-2e-3zm-9.1054-0.866c0-4e-3 1.1249-1.9567 2.4998-4.3394l2.4998-4.3322 2.9132-2.4447c1.6022-1.3446 2.9175-2.4465 2.9228-2.4485 0.0052-2e-3 -0.0158 0.051-0.0469 0.1178-0.031 0.0669-1.4545 3.1201-3.1633 6.785l-3.107 6.6635-2.2592 0.0029c-1.2425 0.0016-2.2592-4e-4 -2.2592-0.0044z"
          fill="#0089d6"/>
</svg>
