<svg width="114.67mm" height="95.793mm" version="1.1" viewBox="0 0 114.67 95.793" xmlns="http://www.w3.org/2000/svg">
 <g transform="translate(-79.31 -66.98)" stroke-width=".534">
  <path d="m178.69 137.52c-4.8477 2.5269-29.961 12.852-35.307 15.639-5.3464 2.788-8.3166 2.7608-12.54 0.74173-4.2234-2.0191-30.948-12.814-35.762-15.115-2.4062-1.1502-3.6713-2.1205-3.6713-3.0374v-9.1822s34.792-7.5743 40.409-9.5891c5.6166-2.0153 7.5652-2.088 12.345-0.33695 4.7804 1.751 33.361 6.9079 38.086 8.638l-2e-3 9.0519c5.3e-4 0.90781-1.0894 1.9037-3.557 3.1896z" fill="#a41e11"/>
  <path d="m178.69 128.34c-4.8477 2.5258-29.961 12.852-35.307 15.639-5.3464 2.788-8.3166 2.7608-12.54 0.74173-4.224-2.018-30.948-12.815-35.762-15.115-4.814-2.301-4.915-3.8849-0.18583-5.7363 4.7286-1.8525 31.306-12.28 36.924-14.295 5.6166-2.0143 7.5652-2.088 12.345-0.33642 4.7804 1.751 29.743 11.687 34.467 13.417 4.7249 1.7318 4.9064 3.1576 0.0587 5.6845z" fill="#d82c20"/>
  <path d="m178.69 122.55c-4.8477 2.5269-29.961 12.852-35.307 15.64-5.3464 2.787-8.3166 2.7597-12.54 0.74066-4.224-2.018-30.948-12.814-35.762-15.115-2.4062-1.1502-3.6713-2.1195-3.6713-3.0364v-9.1833s34.792-7.5738 40.409-9.5891c5.6166-2.0148 7.5652-2.0879 12.345-0.33695 4.7804 1.751 33.361 6.9068 38.086 8.6375l-2e-3 9.053c5.3e-4 0.90728-1.0894 1.9032-3.557 3.1891z" fill="#a41e11"/>
  <path d="m178.69 113.37c-4.8477 2.5269-29.961 12.852-35.307 15.64-5.3464 2.787-8.3166 2.7597-12.54 0.74066-4.224-2.018-30.948-12.814-35.762-15.115-4.814-2.3005-4.915-3.8844-0.18583-5.7368 4.7286-1.8514 31.306-12.279 36.924-14.294 5.6166-2.0148 7.5652-2.088 12.345-0.33696 4.7804 1.751 29.743 11.687 34.467 13.417 4.7249 1.7312 4.9064 3.1576 0.0587 5.6845z" fill="#d82c20"/>
  <path d="m178.69 107.02c-4.8477 2.5269-29.961 12.853-35.307 15.641-5.3464 2.787-8.3166 2.7597-12.54 0.74066-4.224-2.018-30.948-12.814-35.762-15.115-2.4062-1.1502-3.6713-2.12-3.6713-3.0363v-9.1833s34.792-7.5738 40.409-9.5886c5.6166-2.0153 7.5652-2.088 12.345-0.33696 4.7804 1.751 33.361 6.9068 38.086 8.6375l-2e-3 9.0524c5.3e-4 0.90673-1.0894 1.9026-3.557 3.1885z" fill="#a41e11"/>
  <path d="m178.69 97.836c-4.8477 2.5269-29.961 12.853-35.307 15.64-5.3464 2.787-8.3166 2.7597-12.54 0.7412-4.2234-2.0185-30.948-12.814-35.762-15.115-4.814-2.3005-4.915-3.8849-0.18583-5.7368 4.7286-1.8519 31.306-12.279 36.924-14.294 5.6166-2.0153 7.5652-2.088 12.345-0.33642 4.7804 1.751 29.743 11.687 34.467 13.417 4.7249 1.7302 4.9064 3.157 0.0587 5.6834z" fill="#d82c20"/>
  <path d="m139.1 94.05-2.8462-4.7313-9.0887-0.81702 6.7818-2.4457-2.0346-3.754 6.3493 2.4831 5.9862-1.9598-1.618 3.8822 6.1037 2.2855-7.8712 0.81703zm5.8901 6.1891-6.36 9.3237-14.69-6.093z" fill="#fff"/>
  <ellipse cx="118.26" cy="95.711" rx="11.251" ry="4.3612" fill="#fff"/>
  <path d="m158.04 99.994-0.0107-9.8417 12.458 4.9235z" fill="#7a0c00"/>
  <path d="m158.04 99.994-1.351 0.52866-12.442-4.9182 13.783-5.4522z" fill="#ad2115"/>
 </g>
</svg>
