<?xml version="1.0" encoding="UTF-8" standalone="no"?>
<svg
   xmlns:dc="http://purl.org/dc/elements/1.1/"
   xmlns:cc="http://creativecommons.org/ns#"
   xmlns:rdf="http://www.w3.org/1999/02/22-rdf-syntax-ns#"
   xmlns:svg="http://www.w3.org/2000/svg"
   xmlns="http://www.w3.org/2000/svg"
   xmlns:xlink="http://www.w3.org/1999/xlink"
   xmlns:sodipodi="http://sodipodi.sourceforge.net/DTD/sodipodi-0.dtd"
   xmlns:inkscape="http://www.inkscape.org/namespaces/inkscape"
   width="121.5742mm"
   height="87.896301mm"
   viewBox="0 0 121.5742 87.896301"
   version="1.1"
   id="svg1049"
   inkscape:version="1.0.1 (0767f8302a, 2020-10-17)"
   sodipodi:docname="docker.svg">
  <defs
     id="defs1043">
    <clipPath
       id="a">
      <path
         d="M 76,2 V 48 H 54 V 71 H 35.58 c -0.077,0.666 -0.14,1.333 -0.205,2 -1.151,12.531 1.036,24.088 6.063,33.969 L 43.124,110 c 1.011,1.817 2.191,3.523 3.438,5.188 1.244,1.662 1.685,2.582 2.468,3.687 C 62.32,133.811 82.13,141 105,141 155.648,141 198.633,118.562 217.656,68.156 231.153,69.541 244.1,66.08 250,54.562 240.601,49.139 228.522,50.877 221.562,54.375 L 240,2 168,48 H 145 V 2 Z"
         id="path2" />
    </clipPath>
    <clipPath
       id="clipPath910">
      <path
         d="M 76,2 V 48 H 54 V 71 H 35.58 c -0.077,0.666 -0.14,1.333 -0.205,2 -1.151,12.531 1.036,24.088 6.063,33.969 L 43.124,110 c 1.011,1.817 2.191,3.523 3.438,5.188 1.244,1.662 1.685,2.582 2.468,3.687 C 62.32,133.811 82.13,141 105,141 155.648,141 198.633,118.562 217.656,68.156 231.153,69.541 244.1,66.08 250,54.562 240.601,49.139 228.522,50.877 221.562,54.375 L 240,2 168,48 H 145 V 2 Z"
         id="path908" />
    </clipPath>
    <clipPath
       id="clipPath914">
      <path
         d="M 76,2 V 48 H 54 V 71 H 35.58 c -0.077,0.666 -0.14,1.333 -0.205,2 -1.151,12.531 1.036,24.088 6.063,33.969 L 43.124,110 c 1.011,1.817 2.191,3.523 3.438,5.188 1.244,1.662 1.685,2.582 2.468,3.687 C 62.32,133.811 82.13,141 105,141 155.648,141 198.633,118.562 217.656,68.156 231.153,69.541 244.1,66.08 250,54.562 240.601,49.139 228.522,50.877 221.562,54.375 L 240,2 168,48 H 145 V 2 Z"
         id="path912" />
    </clipPath>
    <clipPath
       id="clipPath918">
      <path
         d="M 76,2 V 48 H 54 V 71 H 35.58 c -0.077,0.666 -0.14,1.333 -0.205,2 -1.151,12.531 1.036,24.088 6.063,33.969 L 43.124,110 c 1.011,1.817 2.191,3.523 3.438,5.188 1.244,1.662 1.685,2.582 2.468,3.687 C 62.32,133.811 82.13,141 105,141 155.648,141 198.633,118.562 217.656,68.156 231.153,69.541 244.1,66.08 250,54.562 240.601,49.139 228.522,50.877 221.562,54.375 L 240,2 168,48 H 145 V 2 Z"
         id="path916" />
    </clipPath>
    <clipPath
       id="clipPath922">
      <path
         d="M 76,2 V 48 H 54 V 71 H 35.58 c -0.077,0.666 -0.14,1.333 -0.205,2 -1.151,12.531 1.036,24.088 6.063,33.969 L 43.124,110 c 1.011,1.817 2.191,3.523 3.438,5.188 1.244,1.662 1.685,2.582 2.468,3.687 C 62.32,133.811 82.13,141 105,141 155.648,141 198.633,118.562 217.656,68.156 231.153,69.541 244.1,66.08 250,54.562 240.601,49.139 228.522,50.877 221.562,54.375 L 240,2 168,48 H 145 V 2 Z"
         id="path920" />
    </clipPath>
  </defs>
  <sodipodi:namedview
     id="base"
     pagecolor="#ffffff"
     bordercolor="#666666"
     borderopacity="1.0"
     inkscape:pageopacity="0.0"
     inkscape:pageshadow="2"
     inkscape:zoom="0.98994949"
     inkscape:cx="134.68131"
     inkscape:cy="155.11309"
     inkscape:document-units="mm"
     inkscape:current-layer="layer1"
     inkscape:document-rotation="0"
     showgrid="false"
     inkscape:window-width="1920"
     inkscape:window-height="1043"
     inkscape:window-x="0"
     inkscape:window-y="0"
     inkscape:window-maximized="1"
     fit-margin-top="0"
     fit-margin-left="0"
     fit-margin-right="0"
     fit-margin-bottom="0" />
  <metadata
     id="metadata1046">
    <rdf:RDF>
      <cc:Work
         rdf:about="">
        <dc:format>image/svg+xml</dc:format>
        <dc:type
           rdf:resource="http://purl.org/dc/dcmitype/StillImage" />
        <dc:title></dc:title>
      </cc:Work>
    </rdf:RDF>
  </metadata>
  <g
     inkscape:label="Layer 1"
     inkscape:groupmode="layer"
     id="layer1"
     transform="translate(-43.398307,-102.8669)">
    <g
       id="g896"
       transform="matrix(0.40038094,0,0,0.40038094,52.210127,114.84817)">
      <path
         d="m 147.488,45.732 h 22.866 v 23.374 h 11.561 c 5.34,0 10.831,-0.95 15.887,-2.664 2.485,-0.843 5.274,-2.015 7.724,-3.49 -3.228,-4.214 -4.876,-9.535 -5.36,-14.78 -0.66,-7.135 0.78,-16.42 5.608,-22.005 l 2.404,-2.78 2.864,2.303 c 7.211,5.793 13.276,13.889 14.345,23.118 8.683,-2.554 18.878,-1.95 26.532,2.467 l 3.14,1.812 -1.653,3.226 c -6.473,12.633 -20.005,16.546 -33.235,15.854 -19.797,49.308 -62.898,72.653 -115.157,72.653 -27,0 -51.77,-10.093 -65.876,-34.047 -0.827,-1.488 -1.535,-3.044 -2.286,-4.573 C 32.084,95.656 30.5,84.105 31.574,72.564 l 0.323,-3.457 H 51.45 V 45.732 H 74.316 V 22.866 h 45.732 V 0 h 27.44 v 45.732"
         fill="#394d54"
         id="path9" />
      <g
         clip-path="url(#a)"
         id="g28">
        <g
           id="d">
          <g
             id="c"
             transform="translate(0,-22.866)">
            <path
               d="m 123.859,3.811 h 19.818 v 19.817 h -19.818 z"
               fill="#00acd3"
               id="path11" />
            <path
               d="m 123.859,26.676 h 19.818 v 19.819 h -19.818 z"
               fill="#20c2ef"
               id="path13" />
            <path
               id="b"
               d="M 126.292,21.977 V 5.46 m 2.972,16.516 V 5.46 m 3.002,16.516 V 5.46 m 3.003,16.516 V 5.46 m 3.003,16.516 V 5.46 m 2.972,16.516 V 5.46"
               stroke="#394d54"
               stroke-width="1.56" />
            <use
               height="100%"
               width="100%"
               xlink:href="#b"
               transform="translate(0,22.866)"
               id="use16"
               x="0"
               y="0" />
          </g>
          <use
             height="100%"
             width="100%"
             xlink:href="#c"
             transform="matrix(1,0,0,-1,22.866,4.573)"
             id="use19"
             x="0"
             y="0" />
        </g>
        <use
           height="100%"
           width="100%"
           xlink:href="#d"
           transform="translate(-91.464,45.732)"
           id="use22"
           x="0"
           y="0" />
        <use
           height="100%"
           width="100%"
           xlink:href="#d"
           transform="translate(-45.732,45.732)"
           id="use24"
           x="0"
           y="0" />
        <use
           height="100%"
           width="100%"
           xlink:href="#d"
           transform="translate(0,45.732)"
           id="use26"
           x="0"
           y="0" />
      </g>
      <path
         clip-path="url(#a)"
         d="m 221.57,54.38 c 1.533,-11.916 -7.384,-21.275 -12.914,-25.719 -6.373,7.368 -7.363,26.678 2.635,34.808 -5.58,4.956 -17.337,9.448 -29.376,9.448 H 34 C 32.83,85.484 34,146 34,146 h 217 l -0.987,-91.424 c -9.398,-5.424 -21.484,-3.694 -28.443,-0.197"
         fill="#17b5eb"
         id="path30" />
      <path
         clip-path="url(#a)"
         d="m 34,89 v 57 H 251 V 89"
         fill-opacity="0.17"
         id="path32" />
      <path
         clip-path="url(#a)"
         d="M 111.237,140.89 C 97.697,134.465 90.266,125.73 86.131,116.196 L 45,118 l 21,28 45.237,-5.11"
         fill="#d4edf1"
         id="path34" />
      <path
         clip-path="url(#a)"
         d="m 222.5,53.938 v 0.03 c -20.861,26.89 -50.783,50.38 -82.906,62.72 -28.655,11.007 -53.639,11.06 -70.875,2.218 -1.856,-1.048 -3.676,-2.211 -5.5,-3.312 C 50.582,106.762 43.464,92.152 44.062,72.906 H 34 V 146 H 251 V 50 h -25 z"
         fill-opacity="0.085"
         id="path36" />
      <path
         d="m 45.625,117.03 c 14.165,0.776 29.282,0.915 42.469,-3.218"
         fill="none"
         stroke="#394d54"
         stroke-width="3.4"
         stroke-linecap="round"
         id="path38" />
      <path
         d="m 102.17,106.959 a 5.467,5.467 0 1 1 -10.933,0 5.467,5.467 0 0 1 10.933,0 z"
         fill="#d4edf1"
         id="path40" />
      <path
         d="m 98.121,103.307 a 1.598,1.598 0 0 0 0.798,2.981 c 0.605,0 1.13,-0.336 1.402,-0.831 a 3.915,3.915 0 1 1 -2.2,-2.15 z M 0,90.162 h 254.327 c -5.537,-1.405 -17.52,-3.302 -15.544,-10.56 -10.07,11.652 -34.353,8.174 -40.482,2.429 -6.824,9.898 -46.554,6.136 -49.325,-1.575 -8.556,10.04 -35.067,10.04 -43.623,0 -2.773,7.71 -42.502,11.473 -49.327,1.575 -6.128,5.745 -30.41,9.223 -40.48,-2.429 C 17.522,86.86 5.539,88.757 0,90.162"
         fill="#394d54"
         id="path42" />
      <path
         id="rect873"
         style="display:inline;fill:none;stroke-width:0.661866"
         d="M 50.018471,-29.924679 H 209.61068 c 39.90299,0 72.02706,32.1240696 72.02706,72.027062 v 75.477567 c 0,39.90299 -32.12407,72.02706 -72.02706,72.02706 H 50.018471 c -39.902992,0 -72.027062,-32.12407 -72.027062,-72.02706 V 42.102383 c 0,-39.9029924 32.12407,-72.027062 72.027062,-72.027062 z" />
    </g>
  </g>
</svg>
