<?xml version="1.0" encoding="UTF-8" standalone="no"?>
<svg
   xmlns:dc="http://purl.org/dc/elements/1.1/"
   xmlns:cc="http://creativecommons.org/ns#"
   xmlns:rdf="http://www.w3.org/1999/02/22-rdf-syntax-ns#"
   xmlns:svg="http://www.w3.org/2000/svg"
   xmlns="http://www.w3.org/2000/svg"
   xmlns:sodipodi="http://sodipodi.sourceforge.net/DTD/sodipodi-0.dtd"
   xmlns:inkscape="http://www.inkscape.org/namespaces/inkscape"
   version="1.1"
   id="Capa_1"
   x="0px"
   y="0px"
   viewBox="0 0 512 512"
   style="enable-background:new 0 0 512 512;"
   xml:space="preserve"
   sodipodi:docname="world-wide-web.svg"
   inkscape:version="1.0.1 (0767f8302a, 2020-10-17)"><metadata
   id="metadata233"><rdf:RDF><cc:Work
       rdf:about=""><dc:format>image/svg+xml</dc:format><dc:type
         rdf:resource="http://purl.org/dc/dcmitype/StillImage" /><dc:title></dc:title></cc:Work></rdf:RDF></metadata><defs
   id="defs231"><filter
     style="color-interpolation-filters:sRGB;"
     inkscape:label="Drop Shadow"
     id="filter1496"><feFlood
       flood-opacity="0.498039"
       flood-color="rgb(0,0,0)"
       result="flood"
       id="feFlood1486" /><feComposite
       in="flood"
       in2="SourceGraphic"
       operator="in"
       result="composite1"
       id="feComposite1488" /><feGaussianBlur
       in="composite1"
       stdDeviation="6.36949"
       result="blur"
       id="feGaussianBlur1490" /><feOffset
       dx="1.25024"
       dy="6.73955"
       result="offset"
       id="feOffset1492" /><feComposite
       in="SourceGraphic"
       in2="offset"
       operator="over"
       result="composite2"
       id="feComposite1494" /></filter></defs><sodipodi:namedview
   pagecolor="#ffffff"
   bordercolor="#666666"
   borderopacity="1"
   objecttolerance="10"
   gridtolerance="10"
   guidetolerance="10"
   inkscape:pageopacity="0"
   inkscape:pageshadow="2"
   inkscape:window-width="1920"
   inkscape:window-height="1043"
   id="namedview229"
   showgrid="false"
   inkscape:zoom="1.1683835"
   inkscape:cx="147.81115"
   inkscape:cy="227.152"
   inkscape:window-x="0"
   inkscape:window-y="0"
   inkscape:window-maximized="1"
   inkscape:current-layer="Capa_1"
   inkscape:document-rotation="0" />


<path
   style="fill:#cae4db;fill-opacity:1;stroke-width:1.00157;stroke-miterlimit:4;stroke-dasharray:none;filter:url(#filter1496)"
   d="M 464.2,108.399 C 416.201,41.199 338.5,0 256,0 153.1,0 58.9,64.6 20.2,159.699 L 15.099,170.2 C -12.446,254.076 -1.721,333.523 47.8,403.599 95.799,470.799 173.5,512 256,512 357.7,512 450.7,448.9 490.6,355.899 l 4.499,-9 C 525.085,261.58 514.581,179.618 464.2,108.399 Z M 72.4,386.199 C 29.801,326.199 19.9,250.3 44.5,177.4 l 3.9,-8.101 C 72.7,111.099 121,66 178.599,44.399 c -36.299,47.401 -58.2,139.6 -55.499,169.6 -0.3,0.901 -0.601,1.8 -0.601,3.001 -7.8,100.499 15,197.5 57.9,251.8 C 137.5,453.199 99.401,424.3 72.4,386.199 Z m 168.6,93.1 c -10.499,-3.6 -21,-11.499 -30.901,-22 C 168.1,412 145,316.3 152.5,219.399 V 216.7 c 0,-0.901 0.3,-2.1 0.3,-3.001 8.699,-93.3 45.3,-166.899 88.2,-181 z m 30,-0.3 v -446.3 c 46.199,15.3 84.901,100.3 89.399,201.7 4.2,93.6 -19.199,181.5 -59.7,224.101 -9.6,9.899 -19.498,17.199 -29.699,20.499 z M 467.5,334.6 c -33.6,70.8 -81,114.399 -135.899,133.9 40.199,-50.7 62.999,-141.1 58.798,-235.3 -3.6,-79.801 -26.1,-148.599 -58.799,-190 42.9,15.599 80.999,44.5 107.999,82.599 42.6,60 52.501,135.901 27.901,208.801 z"
   id="path182"
   transform="matrix(0.88593249,0,0,0.88593249,29.203549,29.201285)" />
<path
   style="fill:#8db5ab;fill-opacity:1;stroke-width:0.885933"
   d="M 440.45341,125.23548 C 397.92954,65.700818 329.0917,29.201285 256.00227,29.201285 V 482.79872 c 90.09933,0 172.49105,-55.90234 207.83976,-138.29495 l 3.98581,-7.97339 C 494.39341,260.9435 485.08757,188.33071 440.45341,125.23548 Z M 269.29125,453.56206 V 58.170391 c 40.9292,13.554767 75.21656,88.859029 79.20148,178.692579 3.72092,82.92328 -17.00902,160.79675 -52.89017,198.53836 -8.50495,8.76985 -17.27391,15.23715 -26.31131,18.16073 z M 443.37699,325.63429 c -29.76734,62.72402 -71.76053,101.3498 -120.39734,118.62636 35.6136,-44.91677 55.81286,-125.00507 52.09106,-208.45991 -3.18936,-70.6983 -23.12284,-131.64868 -52.09195,-168.327172 38.00651,13.819661 71.75965,39.423992 95.67982,73.177142 37.74073,53.15594 46.51235,120.39911 24.71841,184.98358 z"
   id="path184" />
<path
   style="fill:#cdac81;fill-opacity:1;stroke-width:0.885933"
   d="M 442.04809,162.97709 H 69.956444 c -22.060605,0 -40.752895,17.80636 -40.752895,39.86696 v 106.3119 c 0,22.05883 18.69229,39.86696 40.752895,39.86696 H 442.04809 c 22.0606,0 40.75289,-17.80813 40.75289,-39.86696 v -106.3119 c 0,-22.0606 -18.69229,-39.86696 -40.75289,-39.86696 z"
   id="path186" />
<path
   style="fill:#7d694d;fill-opacity:1;stroke-width:0.885933"
   d="m 482.80098,202.84405 v 106.3119 c 0,22.05883 -18.69229,39.86696 -40.75289,39.86696 H 256.00227 V 162.97709 h 186.04582 c 22.0606,0 40.75289,17.80636 40.75289,39.86696 z"
   id="path188" />
<path
   style="fill:#e1f1fa;stroke-width:0.885933"
   d="m 321.1183,235.2683 -26.57797,53.15594 c -2.39202,4.51915 -6.91027,7.44272 -11.96009,7.44272 -5.04981,0 -9.56807,-2.92357 -11.96009,-7.44272 l -14.61788,-29.23488 -14.61789,29.23488 c -4.51737,9.0374 -19.40281,9.0374 -23.92106,0 L 190.88534,235.2683 c -3.18935,-6.37872 -0.53067,-14.35123 6.11382,-17.80636 6.37872,-3.18936 14.35122,-0.53245 17.80636,6.11205 l 14.61877,29.23665 14.61789,-29.23665 c 2.3929,-4.51737 7.17694,-6.91028 11.96009,-6.91028 4.78315,0 9.56807,2.39291 11.96008,6.91028 l 14.61789,29.23665 14.61789,-29.23665 c 3.45513,-6.6445 11.42853,-9.30141 17.80635,-6.11205 6.6445,3.45513 9.30318,11.42764 6.11382,17.80636 z"
   id="path190" />
<path
   style="fill:#bfe1ff;stroke-width:0.885933"
   d="m 415.47011,295.86696 c -5.03564,0 -9.6292,-2.84207 -11.88744,-7.34526 l -14.69053,-29.38107 -14.69053,29.38107 c -4.51649,9.00639 -19.2584,9.00639 -23.77489,0 l -25.4617,-50.93669 c -1.64783,-2.02436 -2.71272,-4.52889 -2.89434,-7.28059 -0.46689,-7.31958 4.68481,-13.61324 12.0035,-14.09342 5.5548,-0.12934 11.16098,2.49213 13.54857,7.26731 l 14.69141,29.38106 14.69054,-29.38106 c 4.51648,-9.00639 19.2584,-9.00639 23.77488,0 l 14.69053,29.38106 14.69054,-29.38106 c 3.29655,-6.57982 11.27703,-9.18801 17.83116,-5.94373 6.56653,3.28327 9.22699,11.26464 5.94372,17.83117 l -26.57797,53.15595 c -2.25825,4.50319 -6.85181,7.34526 -11.88745,7.34526 z"
   id="path192" />
<path
   style="fill:#e1f1fa;stroke-width:0.885933"
   d="m 177.12504,216.15873 c -5.22966,-0.0523 -10.35567,2.54351 -12.74414,7.31958 l -14.69053,29.38106 -14.69053,-29.38106 c -4.7867,-9.54061 -19.04047,-9.46885 -23.77489,0 L 96.534418,252.85937 81.843886,223.47831 c -3.296555,-6.57982 -11.290324,-9.18801 -17.831163,-5.94373 -6.566532,3.28327 -9.226987,11.26464 -5.943721,17.83117 l 26.577974,53.15595 c 2.258242,4.50319 6.851802,7.34526 11.887442,7.34526 5.035642,0 9.629202,-2.84207 11.887442,-7.34526 l 14.69053,-29.38107 14.69054,29.38107 c 2.25824,4.50319 6.8518,7.34526 11.88744,7.34526 5.03564,0 9.6292,-2.84207 11.88744,-7.34526 l 25.03379,-50.06759 c 1.89501,-2.15459 3.11494,-4.99666 3.32225,-8.14969 0.46689,-7.31958 -5.48924,-13.66551 -12.80881,-14.14569 z"
   id="path194" />
<path
   style="fill:#bfe1ff;stroke-width:0.885933"
   d="m 321.1183,235.2683 -26.57797,53.15594 c -2.39202,4.51915 -6.91027,7.44272 -11.96009,7.44272 -5.04981,0 -9.56807,-2.92357 -11.96009,-7.44272 l -14.61788,-29.23488 v -42.52565 c 4.78403,0 9.56807,2.39291 11.96008,6.91028 l 14.61789,29.23665 14.61789,-29.23665 c 3.45513,-6.6445 11.42853,-9.30141 17.80635,-6.11205 6.6445,3.45513 9.30318,11.42764 6.11382,17.80636 z"
   id="path196" />
<g
   id="g198">
</g>
<g
   id="g200">
</g>
<g
   id="g202">
</g>
<g
   id="g204">
</g>
<g
   id="g206">
</g>
<g
   id="g208">
</g>
<g
   id="g210">
</g>
<g
   id="g212">
</g>
<g
   id="g214">
</g>
<g
   id="g216">
</g>
<g
   id="g218">
</g>
<g
   id="g220">
</g>
<g
   id="g222">
</g>
<g
   id="g224">
</g>
<g
   id="g226">
</g>
</svg>
