<?xml version="1.0" encoding="UTF-8" standalone="no"?>
<svg
        xmlns:dc="http://purl.org/dc/elements/1.1/"
        xmlns:cc="http://creativecommons.org/ns#"
        xmlns:rdf="http://www.w3.org/1999/02/22-rdf-syntax-ns#"
        xmlns:svg="http://www.w3.org/2000/svg"
        xmlns="http://www.w3.org/2000/svg"
        xmlns:sodipodi="http://sodipodi.sourceforge.net/DTD/sodipodi-0.dtd"
        xmlns:inkscape="http://www.inkscape.org/namespaces/inkscape"
        role="img"
        viewBox="0 0 24 24"
        version="1.1"
        id="svg6"
        sodipodi:docname="githubactions.svg"
        inkscape:version="1.0.1 (0767f8302a, 2020-10-17)">
    <metadata
            id="metadata12">
        <rdf:RDF>
            <cc:Work
                    rdf:about="">
                <dc:format>image/svg+xml</dc:format>
                <dc:type
                        rdf:resource="http://purl.org/dc/dcmitype/StillImage"/>
            </cc:Work>
        </rdf:RDF>
    </metadata>
    <defs
            id="defs10"/>
    <sodipodi:namedview
            pagecolor="#ffffff"
            bordercolor="#666666"
            borderopacity="1"
            objecttolerance="10"
            gridtolerance="10"
            guidetolerance="10"
            inkscape:pageopacity="0"
            inkscape:pageshadow="2"
            inkscape:window-width="1366"
            inkscape:window-height="768"
            id="namedview8"
            showgrid="false"
            inkscape:zoom="17.029488"
            inkscape:cx="7.0651659"
            inkscape:cy="15.128977"
            inkscape:window-x="0"
            inkscape:window-y="0"
            inkscape:window-maximized="1"
            inkscape:current-layer="svg6"/>
    <title
            id="title2">GitHub Actions icon
    </title>
    <path
            id="path913"
            style="display:inline;fill:#00b7d9;fill-opacity:0.97851199"
            d="M 20.5 17 A 3.503 3.503 0 0 0 17.037109 20.011719 C 17.020109 20.010719 17.004328 20.001906 16.986328 20.003906 L 16.480469 20.021484 A 0.5 0.5 0 0 0 16.496094 21.019531 L 16.513672 21.019531 L 17.019531 21.003906 C 17.027531 21.003906 17.032062 20.999047 17.039062 20.998047 A 3.503 3.503 0 0 0 20.5 24 C 22.43 24 24 22.43 24 20.5 C 24 18.57 22.43 17 20.5 17 z M 20.5 18 C 21.878 18 23 19.122 23 20.5 C 23 21.878 21.878 23 20.5 23 C 19.122 23 18 21.878 18 20.5 C 18 19.122 19.122 18 20.5 18 z "/>
    <path
            style="display:inline;fill:#00b7d9;fill-opacity:1"
            d="m 12,20.5 a 0.5,0.5 0 1 0 1,0 0.5,0.5 0 0 0 -1,0 z"
            id="path909"/>
    <path
            style="display:inline;fill:#00b7d9;fill-opacity:1"
            d="m 10,20.5 a 0.5,0.5 0 1 0 1,0 0.5,0.5 0 0 0 -1,0 z"
            id="path907"/>
    <path
            id="path905"
            style="display:inline;fill:#0051ff;fill-opacity:1"
            d="M 5 0 C 2.243 0 0 2.243 0 5 A 5.008 5.008 0 0 0 4 9.8984375 L 4 17 C 4 19.206 5.794 21 8 21 L 8.0390625 21 A 3.502 3.502 0 0 0 11.5 24 C 13.43 24 15 22.43 15 20.5 C 15 18.57 13.43 17 11.5 17 C 9.74 17 8.2830625 18.307 8.0390625 20 L 8 20 C 6.346 20 5 18.654 5 17 L 5 11.957031 C 5.632 12.600031 6.5104219 13 7.4824219 13 L 8.0390625 13 A 3.502 3.502 0 0 0 11.5 16 A 3.503 3.503 0 0 0 14.960938 13 L 17.039062 13 A 3.503 3.503 0 0 0 20.5 16 C 22.43 16 24 14.43 24 12.5 C 24 10.57 22.43 9 20.5 9 A 3.503 3.503 0 0 0 17.039062 12 L 14.960938 12 A 3.502 3.502 0 0 0 11.5 9 C 9.74 9 8.2830625 10.307 8.0390625 12 L 7.4824219 12 A 2.482 2.482 0 0 1 5.0488281 9.9980469 A 5.005 5.005 0 0 0 10 5 C 10 2.243 7.757 0 5 0 z M 5 1 C 7.206 1 9 2.794 9 5 C 9 7.206 7.206 9 5 9 C 2.794 9 1 7.206 1 5 C 1 2.794 2.794 1 5 1 z M 11.5 10 C 12.878 10 14 11.122 14 12.5 C 14 13.878 12.878 15 11.5 15 C 10.122 15 9 13.878 9 12.5 C 9 11.122 10.122 10 11.5 10 z M 20.5 10 C 21.878 10 23 11.122 23 12.5 C 23 13.878 21.878 15 20.5 15 C 19.122 15 18 13.878 18 12.5 C 18 11.122 19.122 10 20.5 10 z M 11.5 18 C 12.878 18 14 19.122 14 20.5 C 14 21.878 12.878 23 11.5 23 C 10.122 23 9 21.878 9 20.5 C 9 19.122 10.122 18 11.5 18 z "/>
    <path
            id="path895"
            style="display:inline;fill:#0051ff;fill-opacity:1"
            d="M 3.9726562 2.40625 A 1 1 0 0 0 3 3.40625 L 3 6.6015625 A 1.001 1.001 0 0 0 4.5273438 7.4511719 L 7.0839844 5.8671875 A 1 1 0 0 0 7.0898438 4.1699219 L 4.5332031 2.5605469 A 1 1 0 0 0 3.9726562 2.40625 z M 4 3.40625 L 6.5566406 5.015625 L 4 6.6015625 L 4 3.40625 z "/>
    <path
            style="display:inline;fill:#0051ff;fill-opacity:1"
            d="m 20.337,13.689 1.534,-1.532 A 0.5,0.5 0 0 0 21.164,11.45 l -1.181,1.18 -0.392,-0.391 a 0.5,0.5 0 1 0 -0.706,0.708 l 0.746,0.743 a 0.497,0.497 0 0 0 0.706,-10e-4 z"
            id="path891"/>
    <path
            style="display:inline;fill:#0051ff;fill-opacity:1"
            d="M 10.984,13.836 A 0.5,0.5 0 0 1 10.631,13.69 L 9.886,12.947 a 0.5,0.5 0 1 1 0.706,-0.708 l 0.392,0.391 1.181,-1.18 a 0.50027817,0.50027817 0 0 1 0.708,0.707 l -1.535,1.533 a 0.504,0.504 0 0 1 -0.354,0.146 z"
            id="path4"/>
</svg>
