<?xml version="1.0" encoding="UTF-8" standalone="no"?>
<svg
   xmlns:dc="http://purl.org/dc/elements/1.1/"
   xmlns:cc="http://creativecommons.org/ns#"
   xmlns:rdf="http://www.w3.org/1999/02/22-rdf-syntax-ns#"
   xmlns:svg="http://www.w3.org/2000/svg"
   xmlns="http://www.w3.org/2000/svg"
   viewBox="0 0 1069.71 1253.95"
   version="1.1"
   id="svg111">
  <metadata
     id="metadata115">
    <rdf:RDF>
      <cc:Work
         rdf:about="">
        <dc:format>image/svg+xml</dc:format>
        <dc:type
           rdf:resource="http://purl.org/dc/dcmitype/StillImage" />
        <dc:title></dc:title>
      </cc:Work>
    </rdf:RDF>
  </metadata>
  <defs
     id="defs4">
    <style
       id="style2">.cls-1,.cls-11,.cls-13,.cls-16,.cls-8{fill:none;}.cls-1,.cls-16,.cls-17,.cls-2,.cls-3{stroke:#6562cf;}.cls-1,.cls-11,.cls-14,.cls-2,.cls-3{stroke-linecap:round;}.cls-1,.cls-11,.cls-13,.cls-14,.cls-16,.cls-17,.cls-2,.cls-3{stroke-miterlimit:10;}.cls-1,.cls-11,.cls-14,.cls-16,.cls-2,.cls-3,.cls-8{stroke-width:5px;}.cls-14,.cls-2{fill:#fff;}.cls-3,.cls-6{fill:#eaeeff;}.cls-4{fill:#f1921b;}.cls-5{fill:#eb7200;}.cls-7{fill:#dbdaff;}.cls-8{stroke:#c7bfff;stroke-linejoin:round;}.cls-9{fill:#3f4d79;}.cls-10{fill:#ffb000;}.cls-11,.cls-14{stroke:#3f4d79;}.cls-12{fill:#3c4564;}.cls-13{stroke:#ffb000;stroke-width:4px;}.cls-15{fill:#c0c1ff;}.cls-17{fill:#d1d1ff;stroke-width:6px;}</style>
    <filter
       style="color-interpolation-filters:sRGB"
       id="filter940"
       x="-0.0052144685"
       width="1.0104289"
       y="-0.0044465676"
       height="1.0088931">
      <feGaussianBlur
         stdDeviation="2.318686"
         id="feGaussianBlur942" />
    </filter>
    <filter
       style="color-interpolation-filters:sRGB"
       id="filter1452"
       x="-0.0032352547"
       width="1.0064705"
       y="-0.0092961002"
       height="1.0185922">
      <feGaussianBlur
         stdDeviation="0.8851825"
         id="feGaussianBlur1454" />
    </filter>
  </defs>
  <g
     id="g3601">
    <path
       fill="#cae4db"
       d="m 813.01233,551.67154 c 25.15133,17.44318 23.61296,58.61351 13.18611,94.82429 -10.42686,36.2108 -29.616,67.24831 -57.31988,80.00113 -27.83009,12.96651 -64.1749,7.6483 -93.14536,9.8542 -29.18419,2.07973 -50.86782,11.46986 -84.97291,21.88446 -34.10506,10.4146 -80.50542,21.63997 -109.17156,6.73296 -28.66615,-14.90698 -39.25823,-56.03387 -37.39808,-93.84392 1.86012,-37.81005 16.17248,-72.30325 30.27111,-106.92263 13.8849,-34.74557 27.6823,-69.83103 53.2364,-91.63471 25.46653,-22.1436 62.6898,-31.00544 90.92852,-16.3508 28.025,14.52846 47.06547,52.5734 82.33625,68.49767 35.2708,15.92427 86.89809,9.51417 112.0494,26.95735 z"
       id="path1616"
       style="fill:#cae4a9;fill-opacity:1;stroke-width:2.48182" />
    <path
       fill="#cae4db"
       d="m 432.24184,451.46033 c -17.93479,-23.91715 -34.98755,-37.67481 -44.68998,-58.41712 -9.99644,-20.53065 -12.64255,-48.46927 5.29224,-59.47539 17.93479,-11.00612 56.74451,-5.07975 90.85001,-1.90491 34.10551,3.17485 63.80082,3.80982 111.13691,14.81594 47.33609,11.00612 112.60698,32.3834 112.60698,53.76068 0,21.37727 -65.27089,42.75455 -112.60698,66.6717 -47.33609,23.91715 -77.0314,50.58584 -101.43448,46.56437 -24.10906,-3.80981 -43.21991,-38.09812 -61.1547,-62.01527 z"
       id="path1559"
       style="fill:#98e4db;fill-opacity:1;stroke-width:2.49459" />
    <path
       fill="#cae4db"
       d="m 456.52274,321.15513 c 23.16984,33.3362 28.84409,74.23807 33.80905,119.86847 4.96497,45.6304 9.22065,96.22578 -13.94919,134.52694 -23.16984,38.06475 -73.76521,63.83528 -123.17845,62.65315 -49.17681,-1.41856 -97.40791,-29.55337 -130.98054,-67.85454 -33.3362,-38.06474 -52.48678,-86.29584 -45.86683,-127.90699 6.38353,-41.61114 38.06474,-76.83876 71.63737,-110.41139 33.57263,-33.3362 68.80025,-65.25384 106.86499,-67.85454 37.82832,-2.83712 78.73018,23.40627 101.6636,56.9789 z"
       id="path1502"
       style="stroke-width:2.36427" />
    <g
       id="Layer_2"
       data-name="Layer 2"
       style="filter:url(#filter940)"
       transform="matrix(0.46976571,0,0,0.46976571,284.26564,333.12165)">
      <g
         id="Слой_1"
         data-name="Слой 1">
        <g
           id="_1"
           data-name="1">
          <g
             id="CHAIR"
             style="fill:none;fill-opacity:1;stroke:#64e4db;stroke-opacity:1">
            <path
               class="cls-1"
               d="M 208.11,863.68 H 67.69 A 25.73,25.73 0 0 1 42.6,843.59 L 12,707.2 a 25.7,25.7 0 0 1 25.08,-31.32"
               id="path6"
               style="fill:none;fill-opacity:1;stroke:#64e4db;stroke-opacity:1" />
            <path
               class="cls-1"
               d="M 467.11,863.68 H 326.69 A 25.73,25.73 0 0 1 301.6,843.59 L 271,707.2 a 25.7,25.7 0 0 1 25.08,-31.32"
               id="path8"
               style="fill:none;fill-opacity:1;stroke:#64e4db;stroke-opacity:1" />
            <path
               class="cls-2"
               d="M 313.42,724 H 75.12 A 38.41,38.41 0 0 1 37.71,694.3 L 3.37,546.82 a 32.77,32.77 0 0 1 31.92,-40.2 H 273.6 a 38.4,38.4 0 0 1 37.4,29.7 l 34.34,147.51 A 32.78,32.78 0 0 1 313.42,724 Z"
               id="path10"
               style="fill:none;fill-opacity:1;stroke:#64e4db;stroke-opacity:1" />
            <rect
               class="cls-3"
               x="75.110001"
               y="829.65997"
               width="416.20999"
               height="34.02"
               rx="17.01"
               id="rect12"
               style="fill:none;fill-opacity:1;stroke:#64e4db;stroke-opacity:1" />
            <path
               class="cls-1"
               d="M 46.69,1250.4 94.14,896.78 c 0.91,-18.55 15.53,-33.1 33.26,-33.1 h 82 c 17.73,0 32.35,14.55 33.27,33.1 l 47.45,353.62"
               id="path14"
               style="fill:none;fill-opacity:1;stroke:#64e4db;stroke-opacity:1" />
            <path
               class="cls-1"
               d="m 348.05,863.68 h 79.62 c 17.21,0 31.41,14.55 32.3,33.1 l 46.95,353.62"
               id="path16"
               style="fill:none;fill-opacity:1;stroke:#64e4db;stroke-opacity:1" />
          </g>
          <g
             id="MAN">
            <g
               id="RIGHT_HAND"
               data-name="RIGHT HAND">
              <path
                 class="cls-4"
                 d="m 723.77,513.27 c 5.17,3.41 17.16,28.81 17.38,31.87 0.22,3.06 -13.55,25.8 -13.55,25.8 0,0 -5.47,0.12 -6.51,-12.39 -1.27,-14.81 -7.77,-20.42 -17.19,-22.53 -3.94,-0.88 -11.18,2.12 -11.69,7.92 -0.51,5.8 14.47,9.65 17.48,13.17 4.57,5.32 2,12.82 2,13 0,0 -23.12,-7 -27.56,-8.3 -4,-1.19 -21.86,-17.43 -33,-33.53 a 115.51,115.51 0 0 1 -13,8.25 c -28,15.06 -124,50.09 -173.73,42.15 -49.94,-8 -10.05,-167 -10.05,-167 72.32,3.34 102.6,-5.87 108.12,-7.82 l -11.23,73.5 c 30.39,-0.9 105.17,11.49 105.21,11.5 21.01,2.76 59.89,19.52 67.32,24.41 z"
                 id="path19" />
              <path
                 class="cls-5"
                 d="m 454,411.61 h 0.43 c 72.32,3.34 102.6,-5.87 108.12,-7.82 l -2.65,18 c 0,0 -53.65,25.26 -113.32,23 z"
                 id="path21" />
            </g>
            <g
               id="T-SHIRT">
              <path
                 class="cls-6"
                 d="m 461.25,612.59 c 17.18,-1.26 48.32,-201.18 48.32,-201.18 38.35,0.56 84.72,-17.33 84.72,-17.33 0,0 -31.71,-103.92 -42.64,-125.35 C 540.72,247.3 462.26,210.25 453,207.57 l -152.94,-35 c 0,0 -130.55,32.43 -171.72,65.71 C 87.17,271.56 55,411.94 55,411.94 c 75.61,30.49 154,26 154,26 l -26.65,160.63 c -8.63,39 -36.2,162.82 12.41,222.94 0,0 39.11,-192.22 266.49,-208.92 z"
                 id="path24" />
              <path
                 class="cls-7"
                 d="M 360.74,224 315,251.91 257,184.47 300.54,158.39 a 11.15,11.15 0 0 1 15.36,4 z"
                 id="path26" />
              <path
                 class="cls-7"
                 d="m 430.3,230.4 32.19,19 -1.55,-38.62 -7.94,-3.21 c 0,0 -14.14,9.48 -22.7,22.83 z"
                 id="path28" />
              <path
                 class="cls-8"
                 d="m 209,437.92 c 6.2,-20.31 12.4,-69.37 12.4,-69.37"
                 id="path30" />
              <path
                 class="cls-8"
                 d="m 315,251.91 44.88,-26.21 c 0,0 43.06,51.23 44.26,60.19 1.2,8.96 3.46,100.33 3.46,100.33 h 22.7"
                 id="path32" />
              <path
                 class="cls-8"
                 d="M 461.64,249.36 431.15,232.1 c 0,0 -27.65,43.74 -27,53.79"
                 id="path34" />
              <path
                 class="cls-8"
                 d="m 213.87,417.74 c 0,0 -96.64,2.87 -153.44,-27.39"
                 id="path36" />
            </g>
            <g
               id="LEFT_HAND"
               data-name="LEFT HAND">
              <path
                 class="cls-4"
                 d="m 503,576 c 0,4.59 -47.14,2.92 -53.78,2.92 -6.64,0 -48.23,1.58 -58,0 -53.11,4.37 -290,21.59 -317.55,-16.7 C 41.78,517.88 70.27,417.58 70.27,417.58 141.82,442.43 209,437.91 209,437.91 L 203.13,476 c 56.79,7 159.27,43 194.11,55.61 7.47,-2.39 35.91,-11 50.31,-7.72 16.66,3.75 36.67,18.75 38.75,22.92 2.08,4.17 16.7,24.61 16.7,29.19 z"
                 id="path39" />
              <path
                 class="cls-5"
                 d="m 449.19,578.92 c 6.64,0 53.78,1.67 53.78,-2.91 0,-4.58 -14.59,-25 -16.67,-29.17 -2.08,-4.17 -22.08,-19.17 -38.75,-22.92 0,0 20.57,28.57 1.64,55"
                 id="path41" />
              <path
                 class="cls-5"
                 d="m 70.23,417.61 c 0,0 73.23,25.76 138.77,20.31 L 203.13,476 c 0,0 -87.46,-14 -136,-45.68 z"
                 id="path43" />
            </g>
            <g
               id="LEGS"
               style="display:inline">
              <g
                 id="RIGHT">
                <g
                   id="SHOES">
                  <path
                     class="cls-9"
                     d="M 703.79,1254 H 541.86 c -0.16,-2.47 -0.22,-4.83 -0.17,-7.1 H 704 a 34.1,34.1 0 0 1 -0.21,7.1 z"
                     id="path46" />
                  <path
                     class="cls-10"
                     d="m 558.36,1181.5 c 0.58,17.66 -16.49,28.85 -16.49,65.35 h 161.92 c 0,0 2.35,-30.62 -30,-37.68 -32.35,-7.06 -61.83,-16.49 -64.77,-27.67 z"
                     id="path48" />
                  <line
                     class="cls-11"
                     x1="610.13"
                     y1="1214.49"
                     x2="624.90997"
                     y2="1192.61"
                     id="line50" />
                  <line
                     class="cls-11"
                     x1="621.65997"
                     y1="1217.15"
                     x2="635.56"
                     y2="1197.05"
                     id="line52" />
                  <line
                     class="cls-11"
                     x1="636.73999"
                     y1="1218.04"
                     x2="647.97998"
                     y2="1199.71"
                     id="line54" />
                </g>
                <g
                   id="PANT"
                   style="fill:#003032;fill-opacity:0.94902">
                  <path
                     class="cls-12"
                     d="m 384.22,626.74 c 0,0 247.14,-15.46 307.2,55.2 60.06,70.66 -56.52,322.66 -68.3,475.75 0,0 -59.14,5.89 -83.15,0 -24.01,-5.89 -44.91,-267.62 15.59,-339.46 0,0 -230,52.91 -319.69,-13.82 C 146.18,737.68 346.91,628 384.22,626.74 Z"
                     id="path57"
                     style="fill:#003032;fill-opacity:0.94902" />
                </g>
                <path
                   id="LEG"
                   class="cls-4"
                   d="m 609,1181.5 a 79.06,79.06 0 0 1 -50.63,0 l -4.79,-21.84 c 0,0 31.46,1.59 60.2,-1.16 z" />
              </g>
              <g
                 id="LEFT">
                <g
                   id="SHOE">
                  <path
                     class="cls-9"
                     d="m 1069.71,1008.8 -128.45,98.59 q -2.73,-3.33 -4.93,-6.51 l 127.94,-98.2 a 35.88,35.88 0 0 1 5.44,6.12 z"
                     id="path62" />
                  <path
                     class="cls-10"
                     d="m 909.23,1039.29 c 11.22,13.66 4.48,32.93 26.71,61.89 l 128.45,-98.59 c 0,0 -16.78,-25.72 -46.77,-11.61 -29.99,14.11 -59.08,24.57 -68.23,17.48 z"
                     id="path64" />
                  <line
                     class="cls-11"
                     x1="970.71997"
                     y1="1032.38"
                     x2="969.13"
                     y2="1006.89"
                     id="line66" />
                  <line
                     class="cls-11"
                     x1="980.47998"
                     y1="1026.17"
                     x2="978.89001"
                     y2="1003.34"
                     id="line68" />
                  <line
                     class="cls-11"
                     x1="990.23999"
                     y1="1019.96"
                     x2="988.65002"
                     y2="999.78998"
                     id="line70" />
                </g>
                <g
                   id="PANT-2"
                   data-name="PANT"
                   style="display:inline;fill:#00303f;fill-opacity:0.94902">
                  <path
                     class="cls-9"
                     d="m 194.76,811.51 c 3.7,19.94 214,68.26 437.78,-73 0,0 14.71,170.4 240.82,294 0,0 49.2,-17.76 71.31,-56.79 0,0 -147.5,-172.49 -204.29,-330.89 -23.84,-66.51 -323.89,-31.69 -367.76,-18.09 -43.87,13.6 -194.35,95.9 -177.86,184.77 z"
                     id="path73"
                     style="fill:#00303f;fill-opacity:0.94902" />
                </g>
                <path
                   id="LEG-2"
                   data-name="LEG"
                   class="cls-4"
                   d="m 949.39,1008.46 c 0,0 -9.69,29.84 -40.16,30.83 l -19.86,-14.08 a 153.38,153.38 0 0 0 47,-37.17 z" />
              </g>
            </g>
            <g
               id="HEAD">
              <g
                 id="NECK">
                <path
                   class="cls-4"
                   d="m 388,117.6 c 0,0 -9.35,24.58 -70,48 0,0 42.68,58.42 86.09,113.31 0,0 17.4,-50.43 48.85,-71.32 z"
                   id="path79" />
                <path
                   class="cls-5"
                   d="m 453,207.57 c -9.27,6.33 -17.08,14.88 -23.54,24 -20,-15 -42.49,-41.33 -49.15,-60.43 -3.29,-9.45 5.42,-35 10.47,-49.76 z"
                   id="path81" />
              </g>
              <path
                 id="HEAD-2"
                 data-name="HEAD"
                 class="cls-4"
                 d="m 386.78,122.4 c 0,8 -6.95,32.63 1.46,42.51 15.38,18.07 59.44,47 81.11,45.79 15.44,-0.83 37.31,-67.81 40.57,-77.82 3.26,-10.01 17.34,-50.15 7.34,-60.88 -10,-10.73 -93.59,-34.21 -110.2,0.37 -18.41,38.33 -20.28,50.03 -20.28,50.03 z" />
              <g
                 id="HAIR"
                 style="fill:#000000;fill-opacity:1">
                <path
                   class="cls-10"
                   d="m 551.65,48.72 c -8.21,53.71 -43.19,60.73 -112.1,20.39 -31.57,-18.47 -9.25,14.61 -27,43.33 l -5.8,2.16 c 0.19,-2.89 0.6,-14.83 -5.34,-14.86 -8.75,0 -11.44,13.24 -12.28,21.41 l -3.36,1.25 c 0,0 -0.36,-59.87 8.13,-78.9 21,-47.11 81.7,-21.66 96.59,-13.65 46.98,25.25 61.16,18.87 61.16,18.87 z"
                   id="path85"
                   style="fill:#000000;fill-opacity:1" />
                <path
                   class="cls-13"
                   d="m 438,65 c 49,38.68 87.5,47.85 106.62,25.11"
                   id="path87"
                   style="fill:#000000;fill-opacity:1" />
              </g>
              <g
                 id="HEADPHONES">
                <rect
                   class="cls-14"
                   x="367.54001"
                   y="81.559998"
                   width="44.259998"
                   height="54.099998"
                   rx="22.08"
                   transform="rotate(15.88,389.71849,108.64245)"
                   id="rect90" />
                <path
                   class="cls-14"
                   d="m 413.14,107 -4.38,15.4 a 19.06,19.06 0 0 1 -23.54,13.11 l -5.92,-1.69 c -0.26,-0.07 -0.51,-0.15 -0.77,-0.24 a 19,19 0 0 0 22.76,-13.31 l 4.38,-15.4 A 19,19 0 0 0 393.33,81.58 l 0.78,0.2 5.89,1.66 A 19,19 0 0 1 413.14,107 Z"
                   id="path92" />
                <path
                   class="cls-11"
                   d="m 394.11,81.75 18,-63.2 a 22.08,22.08 0 0 1 27.28,-15.2 l 64,18.2 c 7.92,2.25 11.52,8.5 9.26,16.43"
                   id="path94" />
              </g>
            </g>
          </g>
          <g
             id="LAPTOP"
             style="opacity:0.999;fill:#9ae3db;fill-opacity:1;stroke:#64b5db;stroke-opacity:1;filter:url(#filter1452)">
            <path
               class="cls-6"
               d="M 693.12,581.44 H 412.53 c -12.81,0 -20.93,-12.81 -14.75,-23.27 l 95,-160.67 c 8.26,-14 24,-22.66 41.16,-22.66 h 280.6 c 12.81,0 20.93,12.81 14.75,23.27 l -95,160.67 c -8.29,13.98 -24.05,22.66 -41.17,22.66 z"
               id="path99"
               style="fill:#9ae3db;fill-opacity:1;stroke:#64b5db;stroke-opacity:1" />
            <path
               class="cls-15"
               d="M 690.37,586.6 H 421.3 c -12.55,0 -20.5,-12.55 -14.44,-22.8 l 93.07,-157.41 c 8.1,-13.7 23.55,-22.2 40.33,-22.2 h 269.07 c 12.55,0 20.5,12.55 14.44,22.8 l -93.07,157.4 c -8.1,13.7 -23.55,22.21 -40.33,22.21 z"
               id="path101"
               style="fill:#9ae3db;fill-opacity:1;stroke:#64b5db;stroke-opacity:1" />
            <path
               class="cls-16"
               d="M 693.12,581.44 H 412.53 c -12.81,0 -20.93,-12.81 -14.75,-23.27 l 95,-160.67 c 8.26,-14 24,-22.66 41.16,-22.66 h 280.6 c 12.81,0 20.93,12.81 14.75,23.27 l -95,160.67 c -8.29,13.98 -24.05,22.66 -41.17,22.66 z"
               id="path103"
               style="fill:#9ae3db;fill-opacity:1;stroke:#64b5db;stroke-opacity:1" />
            <rect
               class="cls-17"
               x="174.75"
               y="581.65002"
               width="531.92999"
               height="21.719999"
               rx="9.7799997"
               id="rect105"
               style="fill:#9ae3db;fill-opacity:1;stroke:#64b5db;stroke-opacity:1" />
          </g>
        </g>
      </g>
    </g>
  </g>
</svg>
